<?xml version="1.0" encoding="UTF-8"?>
<svg xmlns="http://www.w3.org/2000/svg" xmlns:xlink="http://www.w3.org/1999/xlink" viewBox="0 0 60 60" width="60px" height="60px">
<g id="surface53696510">
<path style=" stroke:none;fill-rule:nonzero;fill:rgb(7.843138%,72.156864%,65.098041%);fill-opacity:1;" d="M 16.875 5.625 L 16.875 26.25 L 17.167969 26.71875 L 19.511719 30.585938 L 19.453125 30.585938 L 22.5 35.625 L 25.546875 30.585938 L 25.488281 30.585938 L 27.832031 26.71875 L 28.125 26.25 L 28.125 15 L 45 15 C 46.03125 15 46.875 15.84375 46.875 16.875 L 46.875 35.625 L 22.5 35.625 L 26.191406 41.777344 L 25.722656 42.128906 L 20.625 46.347656 L 20.625 41.25 L 15 41.25 C 13.96875 41.25 13.125 40.40625 13.125 39.375 L 13.125 16.875 C 13.125 15.84375 13.96875 15 15 15 L 15 11.25 C 11.894531 11.25 9.375 13.769531 9.375 16.875 L 9.375 39.375 C 9.375 42.480469 11.894531 45 15 45 L 16.875 45 L 16.875 54.375 L 28.125 45 L 45 45 C 48.105469 45 50.625 42.480469 50.625 39.375 L 50.625 16.875 C 50.625 13.769531 48.105469 11.25 45 11.25 L 28.125 11.25 L 28.125 5.625 Z M 20.625 9.375 L 24.375 9.375 L 24.375 21.152344 L 23.085938 20.742188 L 22.5 20.507812 L 21.914062 20.742188 L 20.625 21.152344 Z M 22.5 24.433594 L 24.375 25.078125 L 24.375 25.253906 L 22.5 28.359375 L 20.625 25.253906 L 20.625 25.078125 Z M 22.5 24.433594 "/>
</g>
</svg>
